{
  "accessors": [
    {
      "bufferView": 2,
      "componentType": 5126,
      "count": 1068,
      "max": [
        12.86655044555664,
        23.54853057861328,
        18.622814178466797
      ],
      "min": [
        -12.844810485839844,
        -53.67702865600586,
        0.09131515026092529
      ],
      "type": "VEC3"
    },
    {
      "bufferView": 2,
      "byteOffset": 12816,
      "componentType": 5126,
      "count": 1068,
      "max": [
        1.0,
        1.0,
        1.0
      ],
      "min": [
        -1.0,
        -1.0,
        -1.0
      ],
      "type": "VEC3"
    },
    {
      "bufferView": 1,
      "componentType": 5126,
      "count": 1068,
      "max": [
        0.9857489466667175,
        0.9913498759269714
      ],
      "min": [
        0.010079845786094666,
        0.020590970292687416
      ],
      "type": "VEC2"
    },
    {
      "bufferView": 0,
      "componentType": 5125,
      "count": 2220,
      "type": "SCALAR"
    },
    {
      "bufferView": 2,
      "byteOffset": 25632,
      "componentType": 5126,
      "count": 224,
      "max": [
        10.077457427978516,
        9.063544273376465,
        5.142142295837402
      ],
      "min": [
        -10.076750755310059,
        -40.75851821899414,
        -2.998427391052246
      ],
      "type": "VEC3"
    },
    {
      "bufferView": 2,
      "byteOffset": 28320,
      "componentType": 5126,
      "count": 224,
      "max": [
        1.96689917686399e-08,
        1.0,
        0.974928081035614
      ],
      "min": [
        -1.6606142594355333e-07,
        -1.0,
        -0.9749280214309692
      ],
      "type": "VEC3"
    },
    {
      "bufferView": 1,
      "byteOffset": 8544,
      "componentType": 5126,
      "count": 224,
      "max": [
        1.0099999904632568,
        2.0
      ],
      "min": [
        0.0,
        0.0
      ],
      "type": "VEC2"
    },
    {
      "bufferView": 0,
      "byteOffset": 8880,
      "componentType": 5125,
      "count": 336,
      "type": "SCALAR"
    },
    {
      "bufferView": 2,
      "byteOffset": 31008,
      "componentType": 5126,
      "count": 140,
      "max": [
        10.490108489990234,
        9.063544273376465,
        5.142142295837402
      ],
      "min": [
        -10.464629173278809,
        0.7136244773864746,
        -2.998427391052246
      ],
      "type": "VEC3"
    },
    {
      "bufferView": 2,
      "byteOffset": 32688,
      "componentType": 5126,
      "count": 140,
      "max": [
        1.0,
        0.6228504180908203,
        0.6072356700897217
      ],
      "min": [
        -1.0,
        -0.6228509545326233,
        -0.6072336435317993
      ],
      "type": "VEC3"
    },
    {
      "bufferView": 1,
      "byteOffset": 10336,
      "componentType": 5126,
      "count": 140,
      "max": [
        0.9874639511108398,
        1.0
      ],
      "min": [
        0.012536019086837769,
        0.0
      ],
      "type": "VEC2"
    },
    {
      "bufferView": 0,
      "byteOffset": 10224,
      "componentType": 5125,
      "count": 384,
      "type": "SCALAR"
    },
    {
      "bufferView": 2,
      "byteOffset": 34368,
      "componentType": 5126,
      "count": 56,
      "max": [
        10.075209617614746,
        -32.40860366821289,
        5.142142295837402
      ],
      "min": [
        -10.076750755310059,
        -40.75851821899414,
        -2.998426914215088
      ],
      "type": "VEC3"
    },
    {
      "bufferView": 2,
      "byteOffset": 35040,
      "componentType": 5126,
      "count": 56,
      "max": [
        1.0,
        1.803092573027243e-06,
        5.04591980643454e-07
      ],
      "min": [
        -1.0,
        -1.832493580877781e-06,
        -4.960419346389244e-07
      ],
      "type": "VEC3"
    },
    {
      "bufferView": 1,
      "byteOffset": 11456,
      "componentType": 5126,
      "count": 56,
      "max": [
        0.9874639511108398,
        1.0
      ],
      "min": [
        0.012536019086837769,
        0.0
      ],
      "type": "VEC2"
    },
    {
      "bufferView": 0,
      "byteOffset": 11760,
      "componentType": 5125,
      "count": 144,
      "type": "SCALAR"
    }
  ],
  "asset": {
    "extras": {
      "author": "codexito (https://sketchfab.com/codexito)",
      "license": "CC-BY-4.0 (http://creativecommons.org/licenses/by/4.0/)",
      "source": "https://sketchfab.com/3d-models/fire-truck-e0fadd42bd3b448eaa0eb660764c170a",
      "title": "Fire Truck"
    },
    "generator": "Sketchfab-12.68.0",
    "version": "2.0"
  },
  "bufferViews": [
    {
      "buffer": 0,
      "byteLength": 12336,
      "name": "floatBufferViews",
      "target": 34963
    },
    {
      "buffer": 0,
      "byteLength": 11904,
      "byteOffset": 12336,
      "byteStride": 8,
      "name": "floatBufferViews",
      "target": 34962
    },
    {
      "buffer": 0,
      "byteLength": 35712,
      "byteOffset": 24240,
      "byteStride": 12,
      "name": "floatBufferViews",
      "target": 34962
    }
  ],
  "buffers": [
    {
      "byteLength": 59952,
      "uri": "scene.bin"
    }
  ],
  "images": [
    {
      "uri": "textures/bomberbase_baseColor.jpeg"
    },
    {
      "uri": "textures/bomberbase_metallicRoughness.png"
    },
    {
      "uri": "textures/bombllanta_baseColor.jpeg"
    },
    {
      "uri": "textures/bombllanta_metallicRoughness.png"
    },
    {
      "uri": "textures/bombruedafron_baseColor.jpeg"
    },
    {
      "uri": "textures/bombruedafron_metallicRoughness.png"
    },
    {
      "uri": "textures/bomruedaback_baseColor.jpeg"
    },
    {
      "uri": "textures/bomruedaback_metallicRoughness.png"
    }
  ],
  "materials": [
    {
      "doubleSided": true,
      "name": "bomberbase",
      "pbrMetallicRoughness": {
        "baseColorTexture": {
          "index": 0
        },
        "metallicRoughnessTexture": {
          "index": 1
        },
        "roughnessFactor": 0.17511432926829273
      }
    },
    {
      "doubleSided": true,
      "name": "bombllanta",
      "pbrMetallicRoughness": {
        "baseColorTexture": {
          "index": 2
        },
        "metallicRoughnessTexture": {
          "index": 3
        },
        "roughnessFactor": 0.9921875
      }
    },
    {
      "doubleSided": true,
      "name": "bombruedafron",
      "pbrMetallicRoughness": {
        "baseColorTexture": {
          "index": 4
        },
        "metallicRoughnessTexture": {
          "index": 5
        }
      }
    },
    {
      "doubleSided": true,
      "name": "bomruedaback",
      "pbrMetallicRoughness": {
        "baseColorTexture": {
          "index": 6
        },
        "metallicRoughnessTexture": {
          "index": 7
        },
        "roughnessFactor": 0.8
      }
    }
  ],
  "meshes": [
    {
      "name": "camion bomberos_bomberbase_0",
      "primitives": [
        {
          "attributes": {
            "NORMAL": 1,
            "POSITION": 0,
            "TEXCOORD_0": 2
          },
          "indices": 3,
          "material": 0,
          "mode": 4
        }
      ]
    },
    {
      "name": "camion bomberos_bombllanta_0",
      "primitives": [
        {
          "attributes": {
            "NORMAL": 5,
            "POSITION": 4,
            "TEXCOORD_0": 6
          },
          "indices": 7,
          "material": 1,
          "mode": 4
        }
      ]
    },
    {
      "name": "camion bomberos_bombruedafron_0",
      "primitives": [
        {
          "attributes": {
            "NORMAL": 9,
            "POSITION": 8,
            "TEXCOORD_0": 10
          },
          "indices": 11,
          "material": 2,
          "mode": 4
        }
      ]
    },
    {
      "name": "camion bomberos_bomruedaback_0",
      "primitives": [
        {
          "attributes": {
            "NORMAL": 13,
            "POSITION": 12,
            "TEXCOORD_0": 14
          },
          "indices": 15,
          "material": 3,
          "mode": 4
        }
      ]
    }
  ],
  "nodes": [
    {
      "children": [
        1
      ],
      "matrix": [
        1.0,
        0.0,
        0.0,
        0.0,
        0.0,
        2.220446049250313e-16,
        -1.0,
        0.0,
        0.0,
        1.0,
        2.220446049250313e-16,
        0.0,
        0.0,
        0.0,
        0.0,
        1.0
      ],
      "name": "Sketchfab_model"
    },
    {
      "children": [
        2
      ],
      "matrix": [
        1.0,
        0.0,
        0.0,
        0.0,
        0.0,
        0.0,
        1.0,
        0.0,
        0.0,
        -1.0,
        0.0,
        0.0,
        0.0,
        0.0,
        0.0,
        1.0
      ],
      "name": "f76d49c2d95d4bb5a6331058e7560b0b.fbx"
    },
    {
      "children": [
        3
      ],
      "name": "RootNode"
    },
    {
      "children": [
        4
      ],
      "matrix": [
        1.0,
        0.0,
        0.0,
        0.0,
        0.0,
        2.220446049250313e-16,
        -1.0,
        0.0,
        0.0,
        1.0,
        2.220446049250313e-16,
        0.0,
        0.0,
        9.816203117370605,
        0.0,
        1.0
      ],
      "name": "camion bomberos"
    },
    {
      "children": [
        5,
        6,
        7,
        8
      ],
      "matrix": [
        1.0,
        0.0,
        -0.0,
        0.0,
        0.0,
        1.0,
        0.0,
        0.0,
        0.0,
        0.0,
        1.0,
        0.0,
        -0.0003390312194824219,
        15.064249038696289,
        -9.811203002929688,
        1.0
      ],
      "name": "Object_4"
    },
    {
      "mesh": 0,
      "name": "camion bomberos_bomberbase_0"
    },
    {
      "mesh": 1,
      "name": "camion bomberos_bombllanta_0"
    },
    {
      "mesh": 2,
      "name": "camion bomberos_bombruedafron_0"
    },
    {
      "mesh": 3,
      "name": "camion bomberos_bomruedaback_0"
    }
  ],
  "samplers": [
    {
      "magFilter": 9729,
      "minFilter": 9987,
      "wrapS": 10497,
      "wrapT": 10497
    }
  ],
  "scene": 0,
  "scenes": [
    {
      "name": "Sketchfab_Scene",
      "nodes": [
        0
      ]
    }
  ],
  "textures": [
    {
      "sampler": 0,
      "source": 0
    },
    {
      "sampler": 0,
      "source": 1
    },
    {
      "sampler": 0,
      "source": 2
    },
    {
      "sampler": 0,
      "source": 3
    },
    {
      "sampler": 0,
      "source": 4
    },
    {
      "sampler": 0,
      "source": 5
    },
    {
      "sampler": 0,
      "source": 6
    },
    {
      "sampler": 0,
      "source": 7
    }
  ]
}
